<svg xmlns="http://www.w3.org/2000/svg" viewBox="0 0 80.52 73.62"><defs><style>.cls-1{fill:#fff;}</style></defs><g id="Layer_2" data-name="Layer 2"><g id="Layer_1-2" data-name="Layer 1"><path id="Icon_material-home" data-name="Icon material-home" class="cls-1" d="M31.51,71.44V56.54a2.18,2.18,0,0,1,2.17-2.18H46.83A2.18,2.18,0,0,1,49,56.54v14.9a2.18,2.18,0,0,0,2.17,2.18H68.71a2.18,2.18,0,0,0,2.17-2.18V40.79a2.17,2.17,0,0,1,2.18-2.17h5.28a2.17,2.17,0,0,0,1.45-3.79L41.71.56a2.15,2.15,0,0,0-2.9,0L.72,34.83a2.18,2.18,0,0,0,1.46,3.79H7.46a2.18,2.18,0,0,1,2.18,2.17V71.44a2.18,2.18,0,0,0,2.17,2.18H29.34A2.18,2.18,0,0,0,31.51,71.44Z"/></g></g></svg>